<svg width="233" height="201" viewBox="0 0 233 201" fill="none" xmlns="http://www.w3.org/2000/svg">
<path d="M166.918 0.794434C146.828 0.794434 128.998 8.72443 116.918 22.3544C104.838 8.72443 87.008 0.794434 66.918 0.794434C49.4202 0.815605 32.6451 7.77595 20.2723 20.1488C7.89949 32.5216 0.93914 49.2966 0.917969 66.7944C0.917969 139.134 106.728 196.934 111.228 199.364C112.977 200.306 114.932 200.799 116.918 200.799C118.904 200.799 120.859 200.306 122.608 199.364C127.108 196.934 232.918 139.134 232.918 66.7944C232.897 49.2966 225.936 32.5216 213.564 20.1488C201.191 7.77595 184.416 0.815605 166.918 0.794434ZM161.428 143.154C147.501 154.973 132.612 165.61 116.918 174.954C101.223 165.61 86.3353 154.973 72.408 143.154C50.738 124.564 24.918 96.2144 24.918 66.7944C24.918 55.6553 29.343 44.9725 37.2195 37.0959C45.096 29.2194 55.7789 24.7944 66.918 24.7944C84.718 24.7944 99.618 34.1944 105.808 49.3344C106.709 51.5415 108.247 53.4302 110.226 54.7597C112.204 56.0892 114.534 56.7992 116.918 56.7992C119.302 56.7992 121.632 56.0892 123.61 54.7597C125.589 53.4302 127.127 51.5415 128.028 49.3344C134.218 34.1944 149.118 24.7944 166.918 24.7944C178.057 24.7944 188.74 29.2194 196.616 37.0959C204.493 44.9725 208.918 55.6553 208.918 66.7944C208.918 96.2144 183.098 124.564 161.428 143.154Z" fill="#727272"/>
</svg>
