<svg width="31" height="23" viewBox="0 0 31 23" fill="none" xmlns="http://www.w3.org/2000/svg">
<path d="M30.3468 10.9754C29.1706 7.93308 27.1288 5.30205 24.4736 3.40752C21.8184 1.51299 18.6663 0.438003 15.4068 0.31543C12.1473 0.438003 8.99519 1.51299 6.34 3.40752C3.68482 5.30205 1.64296 7.93308 0.466801 10.9754C0.387368 11.1951 0.387368 11.4357 0.466801 11.6554C1.64296 14.6978 3.68482 17.3288 6.34 19.2233C8.99519 21.1179 12.1473 22.1929 15.4068 22.3154C18.6663 22.1929 21.8184 21.1179 24.4736 19.2233C27.1288 17.3288 29.1706 14.6978 30.3468 11.6554C30.4262 11.4357 30.4262 11.1951 30.3468 10.9754ZM15.4068 20.3154C10.1068 20.3154 4.5068 16.3854 2.4768 11.3154C4.5068 6.24543 10.1068 2.31543 15.4068 2.31543C20.7068 2.31543 26.3068 6.24543 28.3368 11.3154C26.3068 16.3854 20.7068 20.3154 15.4068 20.3154Z" fill="#727272" stroke="#727272" stroke-width="0.5"/>
<path d="M15.4072 5.31543C14.2205 5.31543 13.0605 5.66732 12.0738 6.32661C11.0871 6.9859 10.3181 7.92297 9.86395 9.01933C9.40983 10.1157 9.29101 11.3221 9.52252 12.486C9.75403 13.6499 10.3255 14.719 11.1646 15.5581C12.0037 16.3972 13.0728 16.9686 14.2367 17.2001C15.4006 17.4317 16.607 17.3128 17.7033 16.8587C18.7997 16.4046 19.7368 15.6355 20.396 14.6489C21.0553 13.6622 21.4072 12.5021 21.4072 11.3154C21.4072 9.72413 20.7751 8.19801 19.6499 7.07279C18.5247 5.94757 16.9985 5.31543 15.4072 5.31543ZM15.4072 15.3154C14.6161 15.3154 13.8427 15.0808 13.1849 14.6413C12.5272 14.2018 12.0145 13.5771 11.7117 12.8462C11.409 12.1153 11.3297 11.311 11.4841 10.5351C11.6384 9.75914 12.0194 9.04641 12.5788 8.487C13.1382 7.92759 13.8509 7.54663 14.6269 7.39229C15.4028 7.23795 16.2071 7.31716 16.938 7.61991C17.6689 7.92266 18.2936 8.43535 18.7331 9.09315C19.1726 9.75095 19.4072 10.5243 19.4072 11.3154C19.4072 12.3763 18.9858 13.3937 18.2357 14.1439C17.4855 14.894 16.4681 15.3154 15.4072 15.3154Z" fill="#727272" stroke="#727272" stroke-width="0.5"/>
</svg>
