<svg width="66" height="66" viewBox="0 0 66 66" fill="none" xmlns="http://www.w3.org/2000/svg">
<path fill-rule="evenodd" clip-rule="evenodd" d="M32.5529 45.8062C33.7346 45.8116 34.918 45.3634 35.8196 44.4618C35.8336 44.4478 35.8475 44.4337 35.8613 44.4196L62.7132 17.5677C64.5058 15.7751 64.5058 12.8686 62.7132 11.076C60.9206 9.28337 58.0141 9.28337 56.2215 11.076L32.5735 34.724L22.3726 24.5231C20.5799 22.7304 17.6735 22.7304 15.8809 24.5231C14.0882 26.3157 14.0882 29.2221 15.8809 31.0147L29.2858 44.4196C29.2995 44.4338 29.3134 44.4478 29.3274 44.4618C30.2185 45.3529 31.3849 45.8011 32.5529 45.8062Z" fill="#27C3BC"/>
<path fill-rule="evenodd" clip-rule="evenodd" d="M32.5529 45.8062C33.7346 45.8116 34.918 45.3634 35.8196 44.4618C35.8336 44.4478 35.8475 44.4337 35.8613 44.4196L62.7132 17.5677C64.5058 15.7751 64.5058 12.8686 62.7132 11.076C60.9206 9.28337 58.0141 9.28337 56.2215 11.076L32.5735 34.724L22.3726 24.5231C20.5799 22.7304 17.6735 22.7304 15.8809 24.5231C14.0882 26.3157 14.0882 29.2221 15.8809 31.0147L29.2858 44.4196C29.2995 44.4338 29.3134 44.4478 29.3274 44.4618C30.2185 45.3529 31.3849 45.8011 32.5529 45.8062Z" fill="#27C3BC"/>
<path fill-rule="evenodd" clip-rule="evenodd" d="M32.5529 45.8062C33.7346 45.8116 34.918 45.3634 35.8196 44.4618C35.8336 44.4478 35.8475 44.4337 35.8613 44.4196L62.7132 17.5677C64.5058 15.7751 64.5058 12.8686 62.7132 11.076C60.9206 9.28337 58.0141 9.28337 56.2215 11.076L32.5735 34.724L22.3726 24.5231C20.5799 22.7304 17.6735 22.7304 15.8809 24.5231C14.0882 26.3157 14.0882 29.2221 15.8809 31.0147L29.2858 44.4196C29.2995 44.4338 29.3134 44.4478 29.3274 44.4618C30.2185 45.3529 31.3849 45.8011 32.5529 45.8062Z" fill="#27C3BC"/>
<path fill-rule="evenodd" clip-rule="evenodd" d="M40.6348 0.38208H5.63477C2.87334 0.38208 0.634766 2.62066 0.634766 5.38208V60.3821C0.634766 63.1435 2.87334 65.3821 5.63477 65.3821H60.6348C63.3962 65.3821 65.6348 63.1435 65.6348 60.3821V33.3821H57.6348V57.3821H8.63477V8.38208H40.6348V0.38208Z" fill="#27C3BC"/>
</svg>
