<svg width="20" height="20" viewBox="0 0 4 6" fill="none" xmlns="http://www.w3.org/2000/svg">
<path d="M0.840517 0.204426L3.17001 2.527C3.19766 2.55465 3.21729 2.58461 3.2289 2.61687C3.24051 2.64912 3.24623 2.68369 3.24604 2.72055C3.24604 2.75742 3.24033 2.79198 3.2289 2.82424C3.21747 2.8565 3.19784 2.88645 3.17001 2.9141L0.840517 5.24359C0.776001 5.30811 0.695356 5.34036 0.598582 5.34036C0.501808 5.34036 0.418859 5.3058 0.349735 5.23668C0.28061 5.16755 0.246048 5.08691 0.246048 4.99474C0.246048 4.90258 0.28061 4.82193 0.349735 4.75281L2.38199 2.72055L0.349735 0.688297C0.285218 0.623781 0.25296 0.544242 0.25296 0.44968C0.25296 0.355118 0.287522 0.273366 0.356647 0.204426C0.425771 0.135302 0.506416 0.10074 0.598582 0.10074C0.690748 0.10074 0.771393 0.135302 0.840517 0.204426Z" fill="#727272"/>
</svg>
